<mxfile host="app.diagrams.net" modified="2020-10-29T15:56:21.405Z" agent="5.0 (Windows NT 10.0; Win64; x64) AppleWebKit/537.36 (KHTML, like Gecko) Chrome/86.0.4240.111 Safari/537.36 Edg/86.0.622.51" etag="W7UJqDT81WM35DmP8F3M" version="13.8.7" type="github">
  <diagram id="C5RBs43oDa-KdzZeNtuy" name="Page-1">
    <mxGraphModel dx="866" dy="522" grid="1" gridSize="10" guides="1" tooltips="1" connect="1" arrows="1" fold="1" page="1" pageScale="1" pageWidth="827" pageHeight="1169" math="0" shadow="0">
      <root>
        <mxCell id="WIyWlLk6GJQsqaUBKTNV-0" />
        <mxCell id="WIyWlLk6GJQsqaUBKTNV-1" parent="WIyWlLk6GJQsqaUBKTNV-0" />
        <mxCell id="Kw7Y97xOTRgqpgn4bbt0-2" value="" style="edgeStyle=orthogonalEdgeStyle;rounded=0;orthogonalLoop=1;jettySize=auto;html=1;" edge="1" parent="WIyWlLk6GJQsqaUBKTNV-1" source="Kw7Y97xOTRgqpgn4bbt0-0" target="Kw7Y97xOTRgqpgn4bbt0-1">
          <mxGeometry relative="1" as="geometry" />
        </mxCell>
        <mxCell id="Kw7Y97xOTRgqpgn4bbt0-0" value="Start" style="ellipse;whiteSpace=wrap;html=1;aspect=fixed;" vertex="1" parent="WIyWlLk6GJQsqaUBKTNV-1">
          <mxGeometry x="374" width="80" height="80" as="geometry" />
        </mxCell>
        <mxCell id="Kw7Y97xOTRgqpgn4bbt0-4" value="" style="edgeStyle=orthogonalEdgeStyle;rounded=0;orthogonalLoop=1;jettySize=auto;html=1;" edge="1" parent="WIyWlLk6GJQsqaUBKTNV-1" source="Kw7Y97xOTRgqpgn4bbt0-1" target="Kw7Y97xOTRgqpgn4bbt0-3">
          <mxGeometry relative="1" as="geometry" />
        </mxCell>
        <mxCell id="Kw7Y97xOTRgqpgn4bbt0-1" value="N = 99 to 1000" style="whiteSpace=wrap;html=1;" vertex="1" parent="WIyWlLk6GJQsqaUBKTNV-1">
          <mxGeometry x="354" y="100" width="120" height="60" as="geometry" />
        </mxCell>
        <mxCell id="Kw7Y97xOTRgqpgn4bbt0-8" value="" style="edgeStyle=orthogonalEdgeStyle;rounded=0;orthogonalLoop=1;jettySize=auto;html=1;" edge="1" parent="WIyWlLk6GJQsqaUBKTNV-1" source="Kw7Y97xOTRgqpgn4bbt0-3" target="Kw7Y97xOTRgqpgn4bbt0-7">
          <mxGeometry relative="1" as="geometry" />
        </mxCell>
        <mxCell id="Kw7Y97xOTRgqpgn4bbt0-3" value="For N = N+1" style="whiteSpace=wrap;html=1;" vertex="1" parent="WIyWlLk6GJQsqaUBKTNV-1">
          <mxGeometry x="354" y="180" width="120" height="60" as="geometry" />
        </mxCell>
        <mxCell id="Kw7Y97xOTRgqpgn4bbt0-10" value="YES" style="edgeStyle=orthogonalEdgeStyle;rounded=0;orthogonalLoop=1;jettySize=auto;html=1;" edge="1" parent="WIyWlLk6GJQsqaUBKTNV-1" source="Kw7Y97xOTRgqpgn4bbt0-7" target="Kw7Y97xOTRgqpgn4bbt0-9">
          <mxGeometry relative="1" as="geometry" />
        </mxCell>
        <mxCell id="Kw7Y97xOTRgqpgn4bbt0-16" value="NO" style="edgeStyle=orthogonalEdgeStyle;rounded=0;orthogonalLoop=1;jettySize=auto;html=1;" edge="1" parent="WIyWlLk6GJQsqaUBKTNV-1" source="Kw7Y97xOTRgqpgn4bbt0-7" target="Kw7Y97xOTRgqpgn4bbt0-15">
          <mxGeometry relative="1" as="geometry" />
        </mxCell>
        <mxCell id="Kw7Y97xOTRgqpgn4bbt0-7" value="N &amp;lt;= 1000" style="rhombus;whiteSpace=wrap;html=1;" vertex="1" parent="WIyWlLk6GJQsqaUBKTNV-1">
          <mxGeometry x="358" y="260" width="112" height="120" as="geometry" />
        </mxCell>
        <mxCell id="Kw7Y97xOTRgqpgn4bbt0-12" value="YES" style="edgeStyle=orthogonalEdgeStyle;rounded=0;orthogonalLoop=1;jettySize=auto;html=1;" edge="1" parent="WIyWlLk6GJQsqaUBKTNV-1" source="Kw7Y97xOTRgqpgn4bbt0-9" target="Kw7Y97xOTRgqpgn4bbt0-11">
          <mxGeometry relative="1" as="geometry" />
        </mxCell>
        <mxCell id="Kw7Y97xOTRgqpgn4bbt0-13" value="NO" style="edgeStyle=orthogonalEdgeStyle;rounded=0;orthogonalLoop=1;jettySize=auto;html=1;entryX=0;entryY=0.5;entryDx=0;entryDy=0;" edge="1" parent="WIyWlLk6GJQsqaUBKTNV-1" source="Kw7Y97xOTRgqpgn4bbt0-9" target="Kw7Y97xOTRgqpgn4bbt0-3">
          <mxGeometry x="-0.7101" relative="1" as="geometry">
            <Array as="points">
              <mxPoint x="266" y="210" />
            </Array>
            <mxPoint as="offset" />
          </mxGeometry>
        </mxCell>
        <mxCell id="Kw7Y97xOTRgqpgn4bbt0-9" value="N%2 = 0" style="rhombus;whiteSpace=wrap;html=1;" vertex="1" parent="WIyWlLk6GJQsqaUBKTNV-1">
          <mxGeometry x="210" y="260" width="112" height="120" as="geometry" />
        </mxCell>
        <mxCell id="Kw7Y97xOTRgqpgn4bbt0-14" style="edgeStyle=orthogonalEdgeStyle;rounded=0;orthogonalLoop=1;jettySize=auto;html=1;entryX=0;entryY=0.5;entryDx=0;entryDy=0;" edge="1" parent="WIyWlLk6GJQsqaUBKTNV-1" source="Kw7Y97xOTRgqpgn4bbt0-11" target="Kw7Y97xOTRgqpgn4bbt0-3">
          <mxGeometry relative="1" as="geometry">
            <Array as="points">
              <mxPoint x="120" y="210" />
            </Array>
          </mxGeometry>
        </mxCell>
        <mxCell id="Kw7Y97xOTRgqpgn4bbt0-11" value="Save N" style="whiteSpace=wrap;html=1;" vertex="1" parent="WIyWlLk6GJQsqaUBKTNV-1">
          <mxGeometry x="50" y="290" width="120" height="60" as="geometry" />
        </mxCell>
        <mxCell id="Kw7Y97xOTRgqpgn4bbt0-15" value="Print out&lt;br&gt;N" style="whiteSpace=wrap;html=1;" vertex="1" parent="WIyWlLk6GJQsqaUBKTNV-1">
          <mxGeometry x="354" y="420" width="120" height="60" as="geometry" />
        </mxCell>
      </root>
    </mxGraphModel>
  </diagram>
</mxfile>
